# 3ds Max Wavefront OBJ Exporter v0.97b - (c)2007 guruware
# 创建的文件:13.09.2017 12:02:11

mtllib table1.mtl

#
# object Box002
#

v  -7.4558 13.4923 7.7031
v  -7.4558 13.4923 -7.4509
v  7.6981 13.4923 -7.4509
v  7.6981 13.4923 7.7031
v  -7.4558 13.6841 7.7031
v  7.6981 13.6841 7.7031
v  7.6981 13.6841 -7.4509
v  -7.4558 13.6841 -7.4509
# 8 vertices

vn 0.0000 -1.0000 -0.0000
vn 0.0000 1.0000 -0.0000
vn 0.0000 0.0000 1.0000
vn 1.0000 0.0000 -0.0000
vn 0.0000 0.0000 -1.0000
vn -1.0000 0.0000 -0.0000
# 6 vertex normals

vt 1.0000 0.0000 0.0000
vt 1.0000 1.0000 0.0000
vt 0.0000 1.0000 0.0000
vt 0.0000 0.0000 0.0000
# 4 texture coords

g Box002
usemtl 01___Default
s 2
f 1/1/1 2/2/1 3/3/1 
f 3/3/1 4/4/1 1/1/1 
s 4
f 5/4/2 6/1/2 7/2/2 
f 7/2/2 8/3/2 5/4/2 
s 8
f 1/4/3 4/1/3 6/2/3 
f 6/2/3 5/3/3 1/4/3 
s 16
f 4/4/4 3/1/4 7/2/4 
f 7/2/4 6/3/4 4/4/4 
s 32
f 3/4/5 2/1/5 8/2/5 
f 8/2/5 7/3/5 3/4/5 
s 64
f 2/4/6 1/1/6 5/2/6 
f 5/2/6 8/3/6 2/4/6 
# 12 faces

#
# object Box003
#

v  -1.5065 12.7860 0.1261
v  0.1212 12.7860 1.7538
v  0.1212 12.7860 -1.5016
v  1.7488 12.7860 0.1261
v  1.7488 -0.2580 0.1261
v  0.1212 -0.2580 1.7538
v  0.1212 -0.2580 -1.5016
v  -1.5065 -0.2580 0.1261
# 8 vertices

vn 0.0000 1.0000 -0.0000
vn 0.0000 -1.0000 -0.0000
vn 0.7071 0.0000 0.7071
vn 0.7071 0.0000 -0.7071
vn -0.7071 0.0000 -0.7071
vn -0.7071 0.0000 0.7071
# 6 vertex normals

vt 0.0000 1.0000 0.0000
vt 0.0000 0.0000 0.0000
vt 1.0000 1.0000 0.0000
vt 1.0000 0.0000 0.0000
# 4 texture coords

g Box003
usemtl 07___Default
s 2
f 9/5/7 10/6/7 11/7/7 
f 12/8/7 11/7/7 10/6/7 
s 4
f 13/6/8 14/8/8 15/5/8 
f 16/7/8 15/5/8 14/8/8 
s 8
f 12/8/9 10/6/9 13/7/9 
f 14/5/9 13/7/9 10/6/9 
s 16
f 11/8/10 12/6/10 15/7/10 
f 13/5/10 15/7/10 12/6/10 
s 32
f 9/8/11 11/6/11 16/7/11 
f 15/5/11 16/7/11 11/6/11 
s 64
f 10/8/12 9/6/12 14/7/12 
f 16/5/12 14/7/12 9/6/12 
# 12 faces

#
# object Box004
#

#
# object Box005
#

v  -1.2283 -0.2580 0.3285
v  -5.2974 -0.2580 -3.7407
v  -4.4836 -0.2580 -4.5545
v  -0.4144 -0.2580 -0.4853
v  -1.2283 -0.1620 0.3285
v  -0.4144 -0.1620 -0.4853
v  -4.4836 -0.1620 -4.5545
v  -5.2974 -0.1620 -3.7407
v  -1.2622 -0.2580 0.3624
v  -5.3313 -0.2580 -3.7068
v  -5.2635 -0.2580 -3.7746
v  -1.1943 -0.2580 0.2946
v  -1.2622 0.8930 0.3624
v  -1.1943 0.8930 0.2946
v  -4.7210 0.8930 -3.2320
v  -4.7888 0.8930 -3.1642
v  -5.2635 0.0298 -3.7746
v  -5.3313 0.0298 -3.7068
# 18 vertices

vn 0.0000 -1.0000 -0.0000
vn 0.0000 1.0000 -0.0000
vn 0.7071 0.0000 0.7071
vn 0.7071 0.0000 -0.7071
vn -0.7071 0.0000 -0.7071
vn -0.7071 0.0000 0.7071
vn 0.7071 -0.0000 -0.7071
vn 0.2834 0.2828 -0.9164
vn 0.3950 0.2979 -0.8690
vn -0.5285 0.6644 -0.5285
vn -0.7894 0.0000 0.6139
# 11 vertex normals

vt 1.0000 0.0000 0.0000
vt 1.0000 1.0000 0.0000
vt 0.0000 1.0000 0.0000
vt 0.0000 0.0000 0.0000
vt 1.0000 0.3303 0.0000
vt 1.0000 0.3404 0.0000
vt 0.0000 0.3303 0.0000
vt 0.0000 0.3404 0.0000
# 8 texture coords

g Box005
usemtl 07___Default
s 2
f 17/9/13 18/10/13 19/11/13 
f 19/11/13 20/12/13 17/9/13 
s 4
f 21/12/14 22/9/14 23/10/14 
f 23/10/14 24/11/14 21/12/14 
s 8
f 17/12/15 20/9/15 22/10/15 
f 22/10/15 21/11/15 17/12/15 
s 16
f 20/12/16 19/9/16 23/10/16 
f 23/10/16 22/11/16 20/12/16 
s 32
f 19/12/17 18/9/17 24/10/17 
f 24/10/17 23/11/17 19/12/17 
s 64
f 18/12/18 17/9/18 21/10/18 
f 21/10/18 24/11/18 18/12/18 
s 2
f 25/9/13 26/10/13 27/11/13 
f 27/11/13 28/12/13 25/9/13 
s 4
f 29/12/14 30/9/14 31/10/14 
f 31/10/14 32/11/14 29/12/14 
s 8
f 25/12/15 28/9/15 30/10/15 
f 30/10/15 29/11/15 25/12/15 
s 16
f 28/12/19 27/9/16 33/13/19 
f 28/12/19 33/13/19 31/10/19 
f 28/12/19 31/10/19 30/11/16 
s 32
f 27/12/17 26/9/17 34/14/20 
f 27/12/21 34/14/20 32/10/21 
f 32/10/22 31/11/22 33/15/22 
f 27/12/23 32/10/23 33/15/23 
s 64
f 26/12/18 25/9/18 29/10/18 
f 29/10/18 32/11/18 34/16/18 
f 26/12/18 29/10/18 34/16/18 
# 28 faces

#
# object Box006
#

v  1.3200 -0.2580 -0.1244
v  5.3891 -0.2580 3.9448
v  4.5753 -0.2580 4.7586
v  0.5062 -0.2580 0.6895
v  1.3200 -0.1620 -0.1244
v  0.5062 -0.1620 0.6895
v  4.5753 -0.1620 4.7586
v  5.3891 -0.1620 3.9448
v  1.3539 -0.2580 -0.1583
v  5.4231 -0.2580 3.9109
v  5.3552 -0.2580 3.9787
v  1.2861 -0.2580 -0.0905
v  1.3539 0.8930 -0.1583
v  1.2861 0.8930 -0.0905
v  4.8127 0.8930 3.4361
v  4.8805 0.8930 3.3683
v  5.3552 0.0298 3.9787
v  5.4231 0.0298 3.9109
# 18 vertices

vn 0.0000 -1.0000 -0.0000
vn 0.0000 1.0000 -0.0000
vn -0.7071 0.0000 -0.7071
vn -0.7071 0.0000 0.7071
vn 0.7071 0.0000 0.7071
vn 0.7071 0.0000 -0.7071
vn -0.7071 -0.0000 0.7071
vn -0.2834 0.2828 0.9164
vn -0.3950 0.2979 0.8690
vn 0.5285 0.6644 0.5285
vn 0.7894 0.0000 -0.6139
vn 0.7071 -0.0000 -0.7071
# 12 vertex normals

vt 1.0000 0.0000 0.0000
vt 1.0000 1.0000 0.0000
vt 0.0000 1.0000 0.0000
vt 0.0000 0.0000 0.0000
vt 1.0000 0.3303 0.0000
vt 1.0000 0.3404 0.0000
vt 0.0000 0.3303 0.0000
vt 0.0000 0.3404 0.0000
# 8 texture coords

g Box006
usemtl 07___Default
s 2
f 35/17/24 36/18/24 37/19/24 
f 37/19/24 38/20/24 35/17/24 
s 4
f 39/20/25 40/17/25 41/18/25 
f 41/18/25 42/19/25 39/20/25 
s 8
f 35/20/26 38/17/26 40/18/26 
f 40/18/26 39/19/26 35/20/26 
s 16
f 38/20/27 37/17/27 41/18/27 
f 41/18/27 40/19/27 38/20/27 
s 32
f 37/20/28 36/17/28 42/18/28 
f 42/18/28 41/19/28 37/20/28 
s 64
f 36/20/29 35/17/29 39/18/29 
f 39/18/29 42/19/29 36/20/29 
s 2
f 43/17/24 44/18/24 45/19/24 
f 45/19/24 46/20/24 43/17/24 
s 4
f 47/20/25 48/17/25 49/18/25 
f 49/18/25 50/19/25 47/20/25 
s 8
f 43/20/26 46/17/26 48/18/26 
f 48/18/26 47/19/26 43/20/26 
s 16
f 46/20/30 45/17/27 51/21/30 
f 46/20/30 51/21/30 49/18/30 
f 46/20/30 49/18/30 48/19/27 
s 32
f 45/20/28 44/17/28 52/22/31 
f 45/20/32 52/22/31 50/18/32 
f 50/18/33 49/19/33 51/23/33 
f 45/20/34 50/18/34 51/23/34 
s 64
f 44/20/29 43/17/29 47/18/29 
f 47/18/35 50/19/35 52/24/35 
f 44/20/29 47/18/29 52/24/29 
# 28 faces

#
# object Box007
#

v  -0.3211 -0.2580 0.7003
v  -4.3902 -0.2580 4.7695
v  -5.2041 -0.2580 3.9556
v  -1.1349 -0.2580 -0.1135
v  -0.3211 -0.1620 0.7003
v  -1.1349 -0.1620 -0.1135
v  -5.2041 -0.1620 3.9556
v  -4.3902 -0.1620 4.7695
v  -1.1018 -0.2580 -0.0804
v  -5.1710 -0.2580 3.9888
v  -5.2388 -0.2580 3.9209
v  -1.1696 -0.2580 -0.1482
v  -1.1018 0.8930 -0.0804
v  -1.1696 0.8930 -0.1482
v  -4.6962 0.8930 3.3784
v  -4.6284 0.8930 3.4462
v  -5.2388 0.0298 3.9209
v  -5.1710 0.0298 3.9888
# 18 vertices

vn 0.0000 -1.0000 -0.0000
vn 0.0000 1.0000 -0.0000
vn 0.7071 0.0000 -0.7071
vn -0.7071 0.0000 -0.7071
vn -0.7071 0.0000 0.7071
vn 0.7071 0.0000 0.7071
vn -0.9164 0.2828 -0.2834
vn -0.8690 0.2979 -0.3950
vn -0.5285 0.6644 0.5285
vn 0.6139 0.0000 0.7894
vn 0.7071 -0.0000 0.7071
# 11 vertex normals

vt 1.0000 0.0000 0.0000
vt 1.0000 1.0000 0.0000
vt 0.0000 1.0000 0.0000
vt 0.0000 0.0000 0.0000
vt 1.0000 0.3303 0.0000
vt 1.0000 0.3404 0.0000
vt 0.0000 0.3303 0.0000
vt 0.0000 0.3404 0.0000
# 8 texture coords

g Box007
usemtl 07___Default
s 2
f 53/25/36 54/26/36 55/27/36 
f 55/27/36 56/28/36 53/25/36 
s 4
f 57/28/37 58/25/37 59/26/37 
f 59/26/37 60/27/37 57/28/37 
s 8
f 53/28/38 56/25/38 58/26/38 
f 58/26/38 57/27/38 53/28/38 
s 16
f 56/28/39 55/25/39 59/26/39 
f 59/26/39 58/27/39 56/28/39 
s 32
f 55/28/40 54/25/40 60/26/40 
f 60/26/40 59/27/40 55/28/40 
s 64
f 54/28/41 53/25/41 57/26/41 
f 57/26/41 60/27/41 54/28/41 
s 2
f 61/25/36 62/26/36 63/27/36 
f 63/27/36 64/28/36 61/25/36 
s 4
f 65/28/37 66/25/37 67/26/37 
f 67/26/37 68/27/37 65/28/37 
s 8
f 61/28/38 64/25/38 66/26/38 
f 66/26/38 65/27/38 61/28/38 
s 16
f 64/28/39 63/25/39 69/29/39 
f 64/28/39 69/29/39 67/26/39 
f 64/28/39 67/26/39 66/27/39 
s 32
f 63/28/40 62/25/40 70/30/42 
f 63/28/43 70/30/42 68/26/43 
f 68/26/44 67/27/44 69/31/44 
f 63/28/45 68/26/45 69/31/45 
s 64
f 62/28/41 61/25/41 65/26/41 
f 65/26/46 68/27/46 70/32/46 
f 62/28/41 65/26/41 70/32/41 
# 28 faces

#
# object Box008
#

v  0.7203 -0.2580 -0.4732
v  4.7894 -0.2580 -4.5424
v  5.6033 -0.2580 -3.7286
v  1.5341 -0.2580 0.3406
v  0.7203 -0.1620 -0.4732
v  1.5341 -0.1620 0.3406
v  5.6033 -0.1620 -3.7286
v  4.7894 -0.1620 -4.5424
v  1.5010 -0.2580 0.3075
v  5.5701 -0.2580 -3.7617
v  5.6380 -0.2580 -3.6939
v  1.5688 -0.2580 0.3753
v  1.5010 0.8930 0.3075
v  1.5688 0.8930 0.3753
v  5.0954 0.8930 -3.1513
v  5.0276 0.8930 -3.2191
v  5.6380 0.0298 -3.6939
v  5.5701 0.0298 -3.7617
# 18 vertices

vn 0.0000 -1.0000 -0.0000
vn 0.0000 1.0000 -0.0000
vn -0.7071 0.0000 0.7071
vn 0.7071 0.0000 0.7071
vn 0.7071 0.0000 -0.7071
vn -0.7071 0.0000 -0.7071
vn 0.9164 0.2828 0.2834
vn 0.8690 0.2979 0.3950
vn 0.5285 0.6644 -0.5285
vn -0.6139 0.0000 -0.7894
# 10 vertex normals

vt 1.0000 0.0000 0.0000
vt 1.0000 1.0000 0.0000
vt 0.0000 1.0000 0.0000
vt 0.0000 0.0000 0.0000
vt 1.0000 0.3303 0.0000
vt 1.0000 0.3404 0.0000
vt 0.0000 0.3303 0.0000
vt 0.0000 0.3404 0.0000
# 8 texture coords

g Box008
usemtl 07___Default
s 2
f 71/33/47 72/34/47 73/35/47 
f 73/35/47 74/36/47 71/33/47 
s 4
f 75/36/48 76/33/48 77/34/48 
f 77/34/48 78/35/48 75/36/48 
s 8
f 71/36/49 74/33/49 76/34/49 
f 76/34/49 75/35/49 71/36/49 
s 16
f 74/36/50 73/33/50 77/34/50 
f 77/34/50 76/35/50 74/36/50 
s 32
f 73/36/51 72/33/51 78/34/51 
f 78/34/51 77/35/51 73/36/51 
s 64
f 72/36/52 71/33/52 75/34/52 
f 75/34/52 78/35/52 72/36/52 
s 2
f 79/33/47 80/34/47 81/35/47 
f 81/35/47 82/36/47 79/33/47 
s 4
f 83/36/48 84/33/48 85/34/48 
f 85/34/48 86/35/48 83/36/48 
s 8
f 79/36/49 82/33/49 84/34/49 
f 84/34/49 83/35/49 79/36/49 
s 16
f 82/36/50 81/33/50 87/37/50 
f 82/36/50 87/37/50 85/34/50 
f 82/36/50 85/34/50 84/35/50 
s 32
f 81/36/51 80/33/51 88/38/53 
f 81/36/54 88/38/53 86/34/54 
f 86/34/55 85/35/55 87/39/55 
f 81/36/56 86/34/56 87/39/56 
s 64
f 80/36/52 79/33/52 83/34/52 
f 83/34/52 86/35/52 88/40/52 
f 80/36/52 83/34/52 88/40/52 
# 28 faces

#
# object Box001
#

v  -7.6476 12.7860 7.8949
v  -7.6476 12.7860 -7.6427
v  7.8900 12.7860 -7.6427
v  7.8900 12.7860 7.8949
v  -7.6476 13.5532 7.8949
v  7.8900 13.5532 7.8949
v  7.8900 13.5532 -7.6427
v  -7.6476 13.5532 -7.6427
# 8 vertices

vn 0.0000 -1.0000 -0.0000
vn 0.0000 1.0000 -0.0000
vn 0.0000 0.0000 1.0000
vn 1.0000 0.0000 -0.0000
vn 0.0000 0.0000 -1.0000
vn -1.0000 0.0000 -0.0000
# 6 vertex normals

vt 1.0000 0.0000 0.0000
vt 1.0000 1.0000 0.0000
vt 0.0000 1.0000 0.0000
vt 0.0000 0.0000 0.0000
# 4 texture coords

g Box001
usemtl 07___Default
s 2
f 89/41/57 90/42/57 91/43/57 
f 91/43/57 92/44/57 89/41/57 
s 4
f 93/44/58 94/41/58 95/42/58 
f 95/42/58 96/43/58 93/44/58 
s 8
f 89/44/59 92/41/59 94/42/59 
f 94/42/59 93/43/59 89/44/59 
s 16
f 92/44/60 91/41/60 95/42/60 
f 95/42/60 94/43/60 92/44/60 
s 32
f 91/44/61 90/41/61 96/42/61 
f 96/42/61 95/43/61 91/44/61 
s 64
f 90/44/62 89/41/62 93/42/62 
f 93/42/62 96/43/62 90/44/62 
# 12 faces

